<mxfile host="65bd71144e" scale="3" border="0">
    <diagram id="s0vr5e-pk5qFEAv_qfwK" name="第 1 页">
        <mxGraphModel dx="647" dy="519" grid="0" gridSize="10" guides="1" tooltips="1" connect="1" arrows="1" fold="1" page="1" pageScale="1" pageWidth="827" pageHeight="1169" background="none" math="0" shadow="0">
            <root>
                <mxCell id="0"/>
                <mxCell id="1" parent="0"/>
                <mxCell id="4" style="edgeStyle=none;html=1;exitX=0.5;exitY=1;exitDx=0;exitDy=0;entryX=0.5;entryY=0;entryDx=0;entryDy=0;strokeColor=#8E9EA9;fontColor=#8E9EA9;" parent="1" source="2" target="3" edge="1">
                    <mxGeometry relative="1" as="geometry"/>
                </mxCell>
                <mxCell id="2" value="main" style="rounded=1;whiteSpace=wrap;html=1;strokeColor=none;fontColor=#FFFFFF;fillColor=#42B883;" parent="1" vertex="1">
                    <mxGeometry x="131" y="36" width="112" height="42" as="geometry"/>
                </mxCell>
                <mxCell id="6" style="edgeStyle=none;html=1;exitX=0.5;exitY=1;exitDx=0;exitDy=0;strokeColor=#8E9EA9;fontColor=#8E9EA9;" parent="1" source="3" target="5" edge="1">
                    <mxGeometry relative="1" as="geometry"/>
                </mxCell>
                <mxCell id="15" style="edgeStyle=none;html=1;exitX=1;exitY=0;exitDx=0;exitDy=0;strokeColor=#8E9EA9;fontColor=#8E9EA9;" parent="1" source="3" target="7" edge="1">
                    <mxGeometry relative="1" as="geometry"/>
                </mxCell>
                <mxCell id="3" value="event loop&lt;br&gt;has ?" style="ellipse;whiteSpace=wrap;html=1;aspect=fixed;strokeColor=none;fontColor=#FFFFFF;fillColor=#42B883;" parent="1" vertex="1">
                    <mxGeometry x="147" y="193" width="80" height="80" as="geometry"/>
                </mxCell>
                <mxCell id="5" value="over" style="ellipse;whiteSpace=wrap;html=1;aspect=fixed;strokeColor=none;fontColor=#ffffff;fillColor=#a20025;" parent="1" vertex="1">
                    <mxGeometry x="147" y="417" width="80" height="80" as="geometry"/>
                </mxCell>
                <mxCell id="16" style="edgeStyle=none;html=1;exitX=1;exitY=0.5;exitDx=0;exitDy=0;entryX=0;entryY=0.5;entryDx=0;entryDy=0;strokeColor=#8E9EA9;fontColor=#8E9EA9;" parent="1" source="7" target="8" edge="1">
                    <mxGeometry relative="1" as="geometry"/>
                </mxCell>
                <mxCell id="7" value="timer" style="ellipse;whiteSpace=wrap;html=1;aspect=fixed;strokeColor=none;fontColor=#FFFFFF;fillColor=#42B883;" parent="1" vertex="1">
                    <mxGeometry x="253" y="44" width="80" height="80" as="geometry"/>
                </mxCell>
                <mxCell id="17" style="edgeStyle=none;html=1;exitX=1;exitY=1;exitDx=0;exitDy=0;entryX=0.222;entryY=0.074;entryDx=0;entryDy=0;entryPerimeter=0;strokeColor=#8E9EA9;fontColor=#8E9EA9;" parent="1" source="8" target="9" edge="1">
                    <mxGeometry relative="1" as="geometry"/>
                </mxCell>
                <mxCell id="8" value="I/O" style="ellipse;whiteSpace=wrap;html=1;aspect=fixed;strokeColor=none;fontColor=#FFFFFF;fillColor=#42B883;" parent="1" vertex="1">
                    <mxGeometry x="420" y="44" width="80" height="80" as="geometry"/>
                </mxCell>
                <mxCell id="18" style="edgeStyle=none;html=1;exitX=0.5;exitY=1;exitDx=0;exitDy=0;entryX=1;entryY=0;entryDx=0;entryDy=0;strokeColor=#8E9EA9;fontColor=#8E9EA9;" parent="1" source="9" target="10" edge="1">
                    <mxGeometry relative="1" as="geometry"/>
                </mxCell>
                <mxCell id="9" value="idel prepare" style="ellipse;whiteSpace=wrap;html=1;aspect=fixed;strokeColor=none;fontColor=#FFFFFF;fillColor=#42B883;" parent="1" vertex="1">
                    <mxGeometry x="530" y="193" width="80" height="80" as="geometry"/>
                </mxCell>
                <mxCell id="19" style="edgeStyle=none;html=1;exitX=0;exitY=1;exitDx=0;exitDy=0;entryX=1;entryY=0.5;entryDx=0;entryDy=0;strokeColor=#8E9EA9;fontColor=#8E9EA9;" parent="1" source="10" target="11" edge="1">
                    <mxGeometry relative="1" as="geometry"/>
                </mxCell>
                <mxCell id="10" value="poll" style="ellipse;whiteSpace=wrap;html=1;aspect=fixed;strokeColor=none;fontColor=#FFFFFF;fillColor=#42B883;" parent="1" vertex="1">
                    <mxGeometry x="471" y="302" width="80" height="80" as="geometry"/>
                </mxCell>
                <mxCell id="20" style="edgeStyle=none;html=1;exitX=0;exitY=0.5;exitDx=0;exitDy=0;entryX=1;entryY=1;entryDx=0;entryDy=0;strokeColor=#8E9EA9;fontColor=#8E9EA9;" parent="1" source="11" target="12" edge="1">
                    <mxGeometry relative="1" as="geometry"/>
                </mxCell>
                <mxCell id="11" value="check" style="ellipse;whiteSpace=wrap;html=1;aspect=fixed;strokeColor=none;fontColor=#FFFFFF;fillColor=#42B883;" parent="1" vertex="1">
                    <mxGeometry x="358" y="370" width="80" height="80" as="geometry"/>
                </mxCell>
                <mxCell id="21" style="edgeStyle=none;html=1;exitX=0;exitY=0;exitDx=0;exitDy=0;entryX=0.5;entryY=1;entryDx=0;entryDy=0;strokeColor=#8E9EA9;fontColor=#8E9EA9;" parent="1" source="12" target="3" edge="1">
                    <mxGeometry relative="1" as="geometry"/>
                </mxCell>
                <mxCell id="12" value="close&lt;br&gt;callbacks" style="ellipse;whiteSpace=wrap;html=1;aspect=fixed;strokeColor=none;fontColor=#FFFFFF;fillColor=#42B883;" parent="1" vertex="1">
                    <mxGeometry x="223" y="332" width="80" height="80" as="geometry"/>
                </mxCell>
                <mxCell id="22" value="YES" style="text;strokeColor=none;align=center;fillColor=none;html=1;verticalAlign=middle;whiteSpace=wrap;rounded=0;fontColor=#8E9EA9;" parent="1" vertex="1">
                    <mxGeometry x="240" y="163" width="60" height="24" as="geometry"/>
                </mxCell>
                <mxCell id="23" value="NO" style="text;strokeColor=none;align=center;fillColor=none;html=1;verticalAlign=middle;whiteSpace=wrap;rounded=0;fontColor=#8E9EA9;" parent="1" vertex="1">
                    <mxGeometry x="129" y="312" width="60" height="24" as="geometry"/>
                </mxCell>
                <mxCell id="24" value="process.nextTick" style="rounded=1;whiteSpace=wrap;html=1;strokeColor=none;fontColor=#FFFFFF;fillColor=#42B883;" parent="1" vertex="1">
                    <mxGeometry x="322" y="179" width="112" height="42" as="geometry"/>
                </mxCell>
                <mxCell id="25" value="Promise" style="rounded=1;whiteSpace=wrap;html=1;strokeColor=#8E9EA9;fontColor=#FFFFFF;fillColor=#42B883;" parent="1" vertex="1">
                    <mxGeometry x="322" y="243" width="112" height="42" as="geometry"/>
                </mxCell>
            </root>
        </mxGraphModel>
    </diagram>
</mxfile>